<mxfile host="Electron" agent="Mozilla/5.0 (Windows NT 10.0; Win64; x64) AppleWebKit/537.36 (KHTML, like Gecko) draw.io/24.7.5 Chrome/126.0.6478.183 Electron/31.3.0 Safari/537.36" version="24.7.5">
  <diagram id="fgtxKQEqma3uUelDXOhZ" name="Page-1">
    <mxGraphModel dx="683" dy="421" grid="1" gridSize="10" guides="1" tooltips="1" connect="1" arrows="1" fold="1" page="1" pageScale="1" pageWidth="850" pageHeight="1100" math="0" shadow="0">
      <root>
        <mxCell id="0" />
        <mxCell id="1" parent="0" />
        <mxCell id="i6KmtbReJFaQMk3qWbcQ-1" value="" style="verticalLabelPosition=bottom;shadow=0;dashed=0;align=center;fillColor=strokeColor;html=1;verticalAlign=top;strokeWidth=1;shape=mxgraph.electrical.miscellaneous.monocell_battery;rotation=270;" parent="1" vertex="1">
          <mxGeometry x="230" y="410" width="100" height="60" as="geometry" />
        </mxCell>
        <mxCell id="i6KmtbReJFaQMk3qWbcQ-2" value="" style="endArrow=oval;html=1;rounded=0;exitX=1;exitY=0.5;exitDx=0;exitDy=0;exitPerimeter=0;endFill=1;" parent="1" source="i6KmtbReJFaQMk3qWbcQ-1" edge="1">
          <mxGeometry width="50" height="50" relative="1" as="geometry">
            <mxPoint x="390" y="390" as="sourcePoint" />
            <mxPoint x="380" y="390" as="targetPoint" />
          </mxGeometry>
        </mxCell>
        <mxCell id="i6KmtbReJFaQMk3qWbcQ-3" value="" style="endArrow=oval;html=1;rounded=0;exitX=0;exitY=0.5;exitDx=0;exitDy=0;exitPerimeter=0;endFill=1;" parent="1" source="i6KmtbReJFaQMk3qWbcQ-1" edge="1">
          <mxGeometry width="50" height="50" relative="1" as="geometry">
            <mxPoint x="280" y="550" as="sourcePoint" />
            <mxPoint x="380" y="490" as="targetPoint" />
          </mxGeometry>
        </mxCell>
        <mxCell id="i6KmtbReJFaQMk3qWbcQ-4" value="5V" style="text;html=1;align=center;verticalAlign=middle;whiteSpace=wrap;rounded=0;" parent="1" vertex="1">
          <mxGeometry x="240" y="406" width="60" height="30" as="geometry" />
        </mxCell>
        <mxCell id="i6KmtbReJFaQMk3qWbcQ-9" value="5V" style="text;html=1;align=center;verticalAlign=middle;whiteSpace=wrap;rounded=0;" parent="1" vertex="1">
          <mxGeometry x="350" y="360" width="60" height="30" as="geometry" />
        </mxCell>
        <mxCell id="i6KmtbReJFaQMk3qWbcQ-10" value="0V" style="text;html=1;align=center;verticalAlign=middle;whiteSpace=wrap;rounded=0;" parent="1" vertex="1">
          <mxGeometry x="350" y="490" width="60" height="30" as="geometry" />
        </mxCell>
        <mxCell id="i6KmtbReJFaQMk3qWbcQ-11" value="0V" style="text;html=1;align=center;verticalAlign=middle;whiteSpace=wrap;rounded=0;" parent="1" vertex="1">
          <mxGeometry x="240" y="450" width="60" height="30" as="geometry" />
        </mxCell>
        <mxCell id="i6KmtbReJFaQMk3qWbcQ-12" value="A" style="text;html=1;align=center;verticalAlign=middle;whiteSpace=wrap;rounded=0;" parent="1" vertex="1">
          <mxGeometry x="367" y="376" width="60" height="30" as="geometry" />
        </mxCell>
        <mxCell id="i6KmtbReJFaQMk3qWbcQ-13" value="B" style="text;html=1;align=center;verticalAlign=middle;whiteSpace=wrap;rounded=0;" parent="1" vertex="1">
          <mxGeometry x="367" y="475" width="60" height="30" as="geometry" />
        </mxCell>
        <mxCell id="Nqw-toSS3CLtr3MyPnzC-1" value="+" style="text;html=1;align=center;verticalAlign=middle;whiteSpace=wrap;rounded=0;" vertex="1" parent="1">
          <mxGeometry x="260" y="410" width="60" height="30" as="geometry" />
        </mxCell>
        <mxCell id="Nqw-toSS3CLtr3MyPnzC-2" value="-" style="text;html=1;align=center;verticalAlign=middle;whiteSpace=wrap;rounded=0;" vertex="1" parent="1">
          <mxGeometry x="260" y="445" width="60" height="30" as="geometry" />
        </mxCell>
        <mxCell id="Nqw-toSS3CLtr3MyPnzC-3" value="" style="verticalLabelPosition=bottom;shadow=0;dashed=0;align=center;fillColor=strokeColor;html=1;verticalAlign=top;strokeWidth=1;shape=mxgraph.electrical.miscellaneous.monocell_battery;rotation=270;" vertex="1" parent="1">
          <mxGeometry x="460" y="410" width="100" height="60" as="geometry" />
        </mxCell>
        <mxCell id="Nqw-toSS3CLtr3MyPnzC-4" value="" style="endArrow=oval;html=1;rounded=0;exitX=1;exitY=0.5;exitDx=0;exitDy=0;exitPerimeter=0;endFill=1;" edge="1" parent="1" source="Nqw-toSS3CLtr3MyPnzC-3">
          <mxGeometry width="50" height="50" relative="1" as="geometry">
            <mxPoint x="620" y="390" as="sourcePoint" />
            <mxPoint x="610" y="390" as="targetPoint" />
          </mxGeometry>
        </mxCell>
        <mxCell id="Nqw-toSS3CLtr3MyPnzC-5" value="" style="endArrow=oval;html=1;rounded=0;exitX=0;exitY=0.5;exitDx=0;exitDy=0;exitPerimeter=0;endFill=1;" edge="1" parent="1" source="Nqw-toSS3CLtr3MyPnzC-3">
          <mxGeometry width="50" height="50" relative="1" as="geometry">
            <mxPoint x="510" y="550" as="sourcePoint" />
            <mxPoint x="610" y="490" as="targetPoint" />
          </mxGeometry>
        </mxCell>
        <mxCell id="Nqw-toSS3CLtr3MyPnzC-6" value="3V" style="text;html=1;align=center;verticalAlign=middle;whiteSpace=wrap;rounded=0;" vertex="1" parent="1">
          <mxGeometry x="470" y="406" width="60" height="30" as="geometry" />
        </mxCell>
        <mxCell id="Nqw-toSS3CLtr3MyPnzC-7" value="3V" style="text;html=1;align=center;verticalAlign=middle;whiteSpace=wrap;rounded=0;" vertex="1" parent="1">
          <mxGeometry x="580" y="360" width="60" height="30" as="geometry" />
        </mxCell>
        <mxCell id="Nqw-toSS3CLtr3MyPnzC-8" value="0V" style="text;html=1;align=center;verticalAlign=middle;whiteSpace=wrap;rounded=0;" vertex="1" parent="1">
          <mxGeometry x="580" y="490" width="60" height="30" as="geometry" />
        </mxCell>
        <mxCell id="Nqw-toSS3CLtr3MyPnzC-9" value="0V" style="text;html=1;align=center;verticalAlign=middle;whiteSpace=wrap;rounded=0;" vertex="1" parent="1">
          <mxGeometry x="470" y="450" width="60" height="30" as="geometry" />
        </mxCell>
        <mxCell id="Nqw-toSS3CLtr3MyPnzC-10" value="A" style="text;html=1;align=center;verticalAlign=middle;whiteSpace=wrap;rounded=0;" vertex="1" parent="1">
          <mxGeometry x="597" y="376" width="60" height="30" as="geometry" />
        </mxCell>
        <mxCell id="Nqw-toSS3CLtr3MyPnzC-11" value="B" style="text;html=1;align=center;verticalAlign=middle;whiteSpace=wrap;rounded=0;" vertex="1" parent="1">
          <mxGeometry x="597" y="475" width="60" height="30" as="geometry" />
        </mxCell>
        <mxCell id="Nqw-toSS3CLtr3MyPnzC-12" value="+" style="text;html=1;align=center;verticalAlign=middle;whiteSpace=wrap;rounded=0;" vertex="1" parent="1">
          <mxGeometry x="490" y="410" width="60" height="30" as="geometry" />
        </mxCell>
        <mxCell id="Nqw-toSS3CLtr3MyPnzC-13" value="-" style="text;html=1;align=center;verticalAlign=middle;whiteSpace=wrap;rounded=0;" vertex="1" parent="1">
          <mxGeometry x="490" y="445" width="60" height="30" as="geometry" />
        </mxCell>
      </root>
    </mxGraphModel>
  </diagram>
</mxfile>
